HIERARCHY
ROOT joint_Root
{
	OFFSET 0.0 0.0 0.0
	CHANNELS 6 Xposition Yposition Zposition Zrotation Xrotation Yrotation 
	JOINT Hips
	{
		OFFSET 4.5925 91.4895 -427.239
		CHANNELS 6 Xposition Yposition Zposition Zrotation Xrotation Yrotation 
		JOINT Spine
		{
			OFFSET 15.7357 0.0 0.0
			CHANNELS 6 Xposition Yposition Zposition Zrotation Xrotation Yrotation 
			JOINT Chest
			{
				OFFSET 8.98455 -0.406207 0.0
				CHANNELS 6 Xposition Yposition Zposition Zrotation Xrotation Yrotation 
				JOINT Neck
				{
					OFFSET 16.3773 0.0 0.0
					CHANNELS 6 Xposition Yposition Zposition Zrotation Xrotation Yrotation 
					JOINT Head
					{
						OFFSET 6.45672 0.0 0.0
						CHANNELS 6 Xposition Yposition Zposition Zrotation Xrotation Yrotation 
						End Site
						{
							OFFSET 0.0 0.0 0.0
						}
					}
				}
				JOINT Shoulder_L
				{
					OFFSET 12.9942 -0.242716 4.98039
					CHANNELS 6 Xposition Yposition Zposition Zrotation Xrotation Yrotation 
					JOINT UpperArm_L
					{
						OFFSET 5.34809 0.0 0.0
						CHANNELS 6 Xposition Yposition Zposition Zrotation Xrotation Yrotation 
						JOINT LowerArm_L
						{
							OFFSET 24.3286 1.87007e-05 0.0
							CHANNELS 6 Xposition Yposition Zposition Zrotation Xrotation Yrotation 
							JOINT Hand_L
							{
								OFFSET 22.2916 0.0 0.0
								CHANNELS 6 Xposition Yposition Zposition Zrotation Xrotation Yrotation 
								End Site
								{
									OFFSET 0.0 0.0 0.0
								}
							}
						}
					}
				}
				JOINT Shoulder_R
				{
					OFFSET 12.9945 -0.242716 -4.98039
					CHANNELS 6 Xposition Yposition Zposition Zrotation Xrotation Yrotation 
					JOINT UpperArm_R
					{
						OFFSET -5.34813 0.0 0.0
						CHANNELS 6 Xposition Yposition Zposition Zrotation Xrotation Yrotation 
						JOINT LowerArm_R
						{
							OFFSET -24.3289 0.000322201 0.0
							CHANNELS 6 Xposition Yposition Zposition Zrotation Xrotation Yrotation 
							JOINT Hand_R
							{
								OFFSET -22.2915 -0.000108084 0.0
								CHANNELS 6 Xposition Yposition Zposition Zrotation Xrotation Yrotation 
								End Site
								{
									OFFSET 0.0 0.0 0.0
								}
							}
						}
					}
				}
			}
		}
		JOINT UpperLeg_L
		{
			OFFSET -2.19248 -6.46944 0.0
			CHANNELS 6 Xposition Yposition Zposition Zrotation Xrotation Yrotation 
			JOINT LowerLeg_L
			{
				OFFSET 39.0811 0.0 -1.23785e-05
				CHANNELS 6 Xposition Yposition Zposition Zrotation Xrotation Yrotation 
				JOINT Foot_L
				{
					OFFSET 40.9854 0.0 -1.26872e-05
					CHANNELS 6 Xposition Yposition Zposition Zrotation Xrotation Yrotation 
					JOINT Toes_L
					{
						OFFSET 11.7543 0.0 0.0
						CHANNELS 6 Xposition Yposition Zposition Zrotation Xrotation Yrotation 
						End Site
						{
							OFFSET 0.0 0.0 0.0
						}
					}
				}
			}
		}
		JOINT UpperLeg_R
		{
			OFFSET -2.19251 6.46944 0.0
			CHANNELS 6 Xposition Yposition Zposition Zrotation Xrotation Yrotation 
			JOINT LowerLeg_R
			{
				OFFSET -39.0811 -0.00228153 -0.0401928
				CHANNELS 6 Xposition Yposition Zposition Zrotation Xrotation Yrotation 
				JOINT Foot_R
				{
					OFFSET -40.9854 0.0 0.0
					CHANNELS 6 Xposition Yposition Zposition Zrotation Xrotation Yrotation 
					JOINT Toes_R
					{
						OFFSET -11.7543 0.0 0.0
						CHANNELS 6 Xposition Yposition Zposition Zrotation Xrotation Yrotation 
						End Site
						{
							OFFSET 0.0 0.0 0.0
						}
					}
				}
			}
		}
	}
}
MOTION
Frames:	9
Frame Time:	0.0333333
0.000000 0.000000 0.000000 0.000000 0.000000 -0.000000 0.184626 91.811500 2.516780 89.513500 -0.656780 1.189100 15.735700 0.000005 -0.000001 71.193400 87.713800 -71.341300 8.984550 -0.406207 -0.000000 -3.440060 -1.458840 -0.339638 16.377300 -0.000001 -0.000001 2.413040 -5.183650 4.283670 6.456720 -0.000001 -0.000000 -5.816350 -4.768560 6.340280 12.994200 -0.242716 4.980390 -83.623800 -11.651800 -61.044500 5.348090 -0.000007 -0.000001 -39.551800 -59.640000 -77.792600 24.328600 0.000019 0.000005 -0.720714 -1.025820 -35.199500 22.291600 -0.000001 0.000005 18.523800 5.020520 6.891280 12.994500 -0.242716 -4.980390 94.204600 -9.672210 -66.368400 -5.348130 -0.000001 -0.000004 -46.394600 -56.243300 -79.500500 -24.328900 0.000322 -0.000009 -9.604150 -12.584400 -37.856600 -22.291500 -0.000108 -0.000004 28.856900 5.516040 -7.051990 -2.192480 -6.469440 -0.000000 -176.763000 -12.084100 -4.275900 39.081100 -0.000007 -0.000012 -0.142314 0.322826 23.789900 40.985400 -0.000006 -0.000013 0.560448 6.600460 -68.398200 11.754300 -0.000000 0.000003 -0.000180 -0.001698 -16.641800 -2.192510 6.469440 -0.000001 176.684000 21.533500 176.272000 -39.081100 -0.002282 -0.040193 0.010504 -0.016127 24.029700 -40.985400 0.000008 0.000006 6.019290 13.497800 -69.531700 -11.754300 -0.000006 -0.000006 -0.001300 -0.019587 -17.369600
0.000000 0.000000 0.000000 0.000000 0.000000 -0.000000 0.048056 91.775800 2.297480 89.460500 -0.933039 1.414930 15.735700 0.000005 -0.000001 75.820900 87.444200 -75.960600 8.984550 -0.406207 -0.000000 -2.811870 -1.238760 -0.309839 16.377300 -0.000001 -0.000001 1.716200 -5.085420 4.078920 6.456720 -0.000001 -0.000000 -6.643110 -4.974620 6.308000 12.994200 -0.242716 4.980390 -84.275600 -11.037500 -62.363900 5.348090 -0.000007 -0.000001 -35.924400 -57.551900 -63.465200 24.328600 0.000019 0.000005 0.009809 0.018928 -29.951600 22.291600 -0.000001 0.000005 19.144900 4.863760 10.092500 12.994500 -0.242716 -4.980390 93.563000 -8.955930 -68.200200 -5.348130 -0.000001 -0.000004 -45.924100 -56.061100 -68.654900 -24.328900 0.000322 -0.000009 -14.329700 -23.043700 -33.136500 -22.291500 -0.000108 -0.000004 26.083800 5.265940 1.046410 -2.192480 -6.469440 -0.000000 -176.610000 -12.247800 -4.392660 39.081100 -0.000007 -0.000012 -0.142751 0.317455 24.212400 40.985400 -0.000006 -0.000013 0.462677 6.427770 -68.442400 11.754300 -0.000000 0.000003 -0.000182 -0.001713 -16.642300 -2.192510 6.469440 -0.000001 176.745000 21.756900 176.198000 -39.081100 -0.002282 -0.040193 0.010521 -0.015940 24.332500 -40.985400 0.000008 0.000006 6.287850 13.926000 -69.696300 -11.754300 -0.000006 -0.000006 -0.001340 -0.020122 -17.391300
0.000000 0.000000 0.000000 0.000000 0.000000 -0.000000 -0.055116 91.756000 2.123330 89.369100 -1.143280 1.492080 15.735700 0.000005 -0.000001 79.963500 87.253800 -80.064300 8.984550 -0.406207 -0.000000 -2.358550 -0.948014 -0.221110 16.377300 -0.000001 -0.000001 1.398510 -4.635830 3.993260 6.456720 -0.000001 -0.000000 -7.803910 -4.993150 6.299750 12.994200 -0.242716 4.980390 -84.927000 -10.248300 -63.482900 5.348090 -0.000007 -0.000001 -34.812500 -55.168800 -51.087100 24.328600 0.000019 0.000005 1.825150 3.366400 -28.493900 22.291600 -0.000001 0.000005 16.670200 4.777460 11.754200 12.994500 -0.242716 -4.980390 92.855500 -7.783300 -69.781800 -5.348130 -0.000001 -0.000004 -50.686500 -58.434400 -63.291600 -24.328900 0.000322 -0.000009 -16.009100 -29.341500 -30.350800 -22.291500 -0.000108 -0.000004 22.000900 4.856370 10.273500 -2.192480 -6.469440 -0.000000 -176.455000 -12.326700 -4.567290 39.081100 -0.000007 -0.000012 -0.145180 0.318376 24.513200 40.985400 -0.000006 -0.000013 0.389586 6.326030 -68.467100 11.754300 -0.000000 0.000003 -0.000185 -0.001735 -16.643200 -2.192510 6.469440 -0.000001 176.854000 22.088500 176.179000 -39.081100 -0.002282 -0.040193 0.009421 -0.013511 24.326600 -40.985400 0.000008 0.000006 6.464250 14.424700 -69.840300 -11.754300 -0.000006 -0.000006 -0.001325 -0.019923 -17.383300
0.000000 0.000000 0.000000 0.000000 0.000000 -0.000000 -0.121061 91.697100 2.152630 89.352100 -1.028760 1.649090 15.735700 0.000005 -0.000001 82.719900 87.177900 -82.883400 8.984550 -0.406207 -0.000000 -2.168390 -0.700860 -0.340145 16.377300 -0.000001 -0.000001 1.784330 -4.321800 4.176360 6.456720 -0.000001 -0.000000 -8.530680 -4.946270 6.537620 12.994200 -0.242716 4.980390 -85.574300 -8.796390 -63.155200 5.348090 -0.000007 -0.000001 -39.240100 -53.879900 -50.506700 24.328600 0.000019 0.000005 2.525960 5.229130 -25.828700 22.291600 -0.000001 0.000005 15.397200 4.697520 13.200100 12.994500 -0.242716 -4.980390 92.429800 -6.732560 -70.102500 -5.348130 -0.000001 -0.000004 -52.105200 -60.244800 -60.275600 -24.328900 0.000322 -0.000009 -13.398900 -31.968500 -24.223600 -22.291500 -0.000108 -0.000004 19.421000 4.606790 14.800600 -2.192480 -6.469440 -0.000000 -176.327000 -12.389600 -4.585390 39.081100 -0.000007 -0.000012 -0.149082 0.321261 24.893900 40.985400 -0.000006 -0.000013 0.397196 6.508730 -68.660700 11.754300 -0.000000 0.000003 -0.000186 -0.001740 -16.643300 -2.192510 6.469440 -0.000001 176.620000 22.590900 176.476000 -39.081100 -0.002282 -0.040193 -0.030285 0.074394 24.305100 -40.985400 0.000008 0.000006 5.669180 15.075400 -69.854100 -11.754300 -0.000006 -0.000006 -0.001363 -0.020443 -17.404400
0.000000 0.000000 0.000000 0.000000 0.000000 -0.000000 -0.233512 91.630400 2.381410 89.415400 -0.183820 2.028590 15.735700 0.000005 -0.000001 81.051500 87.166700 -81.317600 8.984550 -0.406207 -0.000000 -2.170530 -0.858091 -0.548357 16.377300 -0.000001 -0.000001 2.450760 -4.186640 3.944610 6.456720 -0.000001 -0.000000 -8.188720 -4.762030 6.398220 12.994200 -0.242716 4.980390 -85.584000 -8.594840 -62.672300 5.348090 -0.000007 -0.000001 -47.258000 -54.064600 -58.000300 24.328600 0.000019 0.000005 2.332810 5.355560 -23.579100 22.291600 -0.000001 0.000005 19.513200 4.649320 14.053300 12.994500 -0.242716 -4.980390 92.477400 -6.759840 -69.818200 -5.348130 -0.000001 -0.000004 -56.441800 -61.674200 -63.873800 -24.328900 0.000322 -0.000009 -12.041900 -32.055000 -21.895500 -22.291500 -0.000108 -0.000004 22.818400 4.640910 14.220800 -2.192480 -6.469440 -0.000000 -176.159000 -12.010700 -4.255770 39.081100 -0.000007 -0.000012 -0.152712 0.325212 25.153800 40.985400 -0.000006 -0.000013 0.435635 7.058800 -68.887400 11.754300 -0.000000 0.000003 -0.000180 -0.001694 -16.641700 -2.192510 6.469440 -0.000001 176.194000 23.189300 177.214000 -39.081100 -0.002282 -0.040193 -0.077924 0.179810 24.313300 -40.985400 0.000008 0.000006 4.545010 15.153600 -69.785200 -11.754300 -0.000006 -0.000006 -0.001380 -0.020667 -17.413500
0.000000 0.000000 0.000000 0.000000 0.000000 -0.000000 -0.314811 91.619000 2.553140 89.638300 1.006260 2.302820 15.735700 0.000005 -0.000001 76.551800 87.260400 -76.960800 8.984550 -0.406207 -0.000000 -2.441500 -1.237470 -0.844368 16.377300 -0.000001 -0.000001 3.348210 -4.354680 3.688700 6.456720 -0.000001 -0.000000 -7.512020 -4.864970 5.971860 12.994200 -0.242716 4.980390 -85.146800 -9.385210 -62.495000 5.348090 -0.000007 -0.000001 -55.660300 -54.497900 -69.622100 24.328600 0.000019 0.000005 2.235420 4.879050 -24.656700 22.291600 -0.000001 0.000005 21.049300 4.688230 13.368100 12.994500 -0.242716 -4.980390 92.800100 -7.408300 -69.227500 -5.348130 -0.000001 -0.000004 -62.229300 -62.131200 -72.436000 -24.328900 0.000322 -0.000009 -14.038400 -30.869300 -25.979300 -22.291500 -0.000108 -0.000004 24.809000 4.806740 11.181600 -2.192480 -6.469440 -0.000000 -176.258000 -11.205200 -3.925100 39.081100 -0.000007 -0.000012 -0.152276 0.326477 25.005500 40.985400 -0.000006 -0.000013 0.456587 7.477210 -68.846100 11.754300 -0.000000 0.000003 -0.000174 -0.001647 -16.639900 -2.192510 6.469440 -0.000001 176.023000 23.196800 177.713000 -39.081100 -0.002282 -0.040193 -0.055580 0.129735 24.415600 -40.985400 0.000008 0.000006 4.902670 13.891100 -70.155100 -11.754300 -0.000006 -0.000006 -0.001312 -0.019741 -17.375900
0.000000 0.000000 0.000000 0.000000 0.000000 -0.000000 -0.349106 91.636400 2.582330 89.818100 1.871510 2.361620 15.735700 0.000005 -0.000001 72.409700 87.427800 -72.891400 8.984550 -0.406207 -0.000000 -2.868860 -1.509360 -1.001330 16.377300 -0.000001 -0.000001 4.015160 -4.539660 3.576510 6.456720 -0.000001 -0.000000 -6.764410 -4.900880 5.480620 12.994200 -0.242716 4.980390 -84.534300 -10.553300 -62.415900 5.348090 -0.000007 -0.000001 -56.177200 -54.358800 -77.099000 24.328600 0.000019 0.000005 1.952990 3.376640 -30.077400 22.291600 -0.000001 0.000005 21.128000 4.868520 10.002500 12.994500 -0.242716 -4.980390 93.374800 -8.756020 -68.824800 -5.348130 -0.000001 -0.000004 -64.440800 -62.034400 -80.240000 -24.328900 0.000322 -0.000009 -18.711400 -30.026600 -34.089700 -22.291500 -0.000108 -0.000004 22.753300 4.956370 8.222070 -2.192480 -6.469440 -0.000000 -176.427000 -10.628500 -3.855100 39.081100 -0.000007 -0.000012 -0.150295 0.325247 24.801600 40.985400 -0.000006 -0.000013 0.474098 7.693610 -68.691700 11.754300 -0.000000 0.000003 -0.000163 -0.001557 -16.636600 -2.192510 6.469440 -0.000001 176.253000 22.553300 177.700000 -39.081100 -0.002282 -0.040193 0.010877 -0.016508 24.617600 -40.985400 0.000008 0.000006 6.137180 11.992600 -70.598900 -11.754300 -0.000006 -0.000006 -0.001216 -0.018430 -17.322600
0.000000 0.000000 0.000000 0.000000 0.000000 -0.000000 -0.359561 91.652700 2.535430 89.903200 2.223750 2.370640 15.735700 0.000005 -0.000001 71.911800 87.564200 -72.428500 8.984550 -0.406207 -0.000000 -3.142030 -1.462710 -1.073680 16.377300 -0.000001 -0.000001 4.203900 -4.644940 3.622680 6.456720 -0.000001 -0.000000 -6.184960 -4.797590 5.035110 12.994200 -0.242716 4.980390 -83.840000 -11.582000 -61.738900 5.348090 -0.000007 -0.000001 -54.199800 -54.912200 -83.915800 24.328600 0.000019 0.000005 2.449710 2.979080 -39.444300 22.291600 -0.000001 0.000005 22.290100 5.069620 5.812890 12.994500 -0.242716 -4.980390 94.016100 -9.951500 -67.890300 -5.348130 -0.000001 -0.000004 -64.688200 -61.564100 -88.112900 -24.328900 0.000322 -0.000009 -22.819000 -25.997300 -43.833500 -22.291500 -0.000108 -0.000004 23.819200 5.158940 3.755510 -2.192480 -6.469440 -0.000000 -176.538000 -10.322500 -3.882200 39.081100 -0.000007 -0.000012 -0.150551 0.327340 24.698900 40.985400 -0.000006 -0.000013 0.478110 7.719290 -68.571700 11.754300 -0.000000 0.000003 -0.000185 -0.001732 -16.643000 -2.192510 6.469440 -0.000001 176.327000 22.068700 177.347000 -39.081100 -0.002282 -0.040193 0.013433 -0.021598 25.108700 -40.985400 0.000008 0.000006 5.967280 11.184200 -70.236700 -11.754300 -0.000006 -0.000006 -0.001251 -0.018915 -17.342300
0.000000 0.000000 0.000000 0.000000 0.000000 -0.000000 -0.362880 91.664800 2.481210 89.832900 2.100490 2.386600 15.735700 0.000005 -0.000001 74.253500 87.614200 -74.729000 8.984550 -0.406207 -0.000000 -3.178890 -1.248920 -0.985911 16.377300 -0.000001 -0.000001 3.983250 -4.927230 3.832390 6.456720 -0.000001 -0.000000 -5.726800 -4.776030 4.450480 12.994200 -0.242716 4.980390 -83.365400 -12.070700 -60.916600 5.348090 -0.000007 -0.000001 -49.589300 -57.709300 -88.594800 24.328600 0.000019 0.000005 5.072170 4.062180 -51.358100 22.291600 -0.000001 0.000005 25.591400 5.192640 2.925130 12.994500 -0.242716 -4.980390 94.584800 -10.682800 -66.606900 -5.348130 -0.000001 -0.000004 -64.973700 -61.117900 -96.975900 -24.328900 0.000322 -0.000009 -19.695900 -16.375400 -51.802300 -22.291500 -0.000108 -0.000004 28.487600 5.395970 -2.708220 -2.192480 -6.469440 -0.000000 -176.490000 -10.284800 -3.899170 39.081100 -0.000007 -0.000012 -0.148817 0.323521 24.702200 40.985400 -0.000006 -0.000013 0.448351 7.569540 -68.541600 11.754300 -0.000000 0.000003 -0.000195 -0.001811 -16.645900 -2.192510 6.469440 -0.000001 176.431000 21.999600 177.219000 -39.081100 -0.002282 -0.040193 0.014390 -0.023520 25.220500 -40.985400 0.000008 0.000006 6.045810 11.200700 -70.084000 -11.754300 -0.000006 -0.000006 -0.001322 -0.019882 -17.381600
